<svg xmlns="http://www.w3.org/2000/svg" viewBox="0 0 109.58 26.61"><defs><style>.cls-1{fill:#fff;}.cls-2{fill:#bee2e9;}</style></defs><title>Recurso 11</title><g id="Capa_2" data-name="Capa 2"><g id="Capa_1-2" data-name="Capa 1"><path class="cls-1" d="M6.1,6V.83L10,.22V16.67l-3.87,0v-1a3.23,3.23,0,0,1-2.16.94c-3,0-3.94-2.54-3.94-5.44C0,7.4,1.35,5.3,4.3,5.3a1.76,1.76,0,0,1,1,.24Zm0,6.46V9.53l-.95-.26c-.63,0-1.06.29-1.06,1.67s.36,1.69,1,1.69A2.59,2.59,0,0,0,6.1,12.46Z"/><path class="cls-1" d="M14.56,12.34a1.35,1.35,0,0,0,1.5,1.07,9.14,9.14,0,0,0,3.12-.51l.94,2.49a7.77,7.77,0,0,1-4.59,1.28c-2.52,0-4.72-1.48-4.72-5.73S13.33,5.3,15.6,5.3c3,0,4.38,1.84,4.38,5.06,0,1.38-.58,2-1.6,2Zm-.1-2.2,2.21-.1c0-1-.44-1.28-1.05-1.28S14.61,9.29,14.46,10.14Z"/><path class="cls-1" d="M24.84,6l1-.48A4.07,4.07,0,0,1,27.6,5.3c2.27,0,3.24,1.45,3.24,4.38v7H26.75V11c0-1.45-.29-1.86-1.09-1.86l-.82.12v7.43H21V5.47L24.84,5Z"/><path class="cls-1" d="M31.37,5.3h1.38V3.1l3.89-.61V5.3h2V9.22h-2v1.64c0,1.43.44,1.89,1.28,1.89h.88v3.92h-2c-2.81,0-4-1.74-4-5V9.22H31.37Z"/><path class="cls-1" d="M45.3,15.94a5.11,5.11,0,0,1-2.3.73c-2.44,0-3.67-1.23-3.67-3.85s1.47-3.38,3.6-3.38a7.08,7.08,0,0,1,1,.07l1.33.19V9.39c0-.85-.75-1-1.69-1a6.48,6.48,0,0,0-2.27.36l-1-2.47a7.66,7.66,0,0,1,4.2-1c3.17,0,4.67,1.64,4.67,4.78v6.61l-3.87,0Zm0-2.63V12.17l-1.25,0c-.81,0-1.07.17-1.07.55s.26.78.94.78A5.27,5.27,0,0,0,45.3,13.31Z"/><path class="cls-1" d="M50.28,16.67V.83L54.2.22V16.67Z"/><polygon class="cls-1" points="55.63 16.67 55.63 5.45 59.52 5.01 59.52 16.67 55.63 16.67"/><path class="cls-1" d="M60.54,15.73l1-3.05a12.07,12.07,0,0,0,3.17.55c.84,0,1.14-.12,1.14-.33s-.39-.39-1.87-.58c-2-.3-3.17-1.19-3.17-3.39,0-2.61,1.79-3.75,4-3.75a7.72,7.72,0,0,1,3.9,1l-1,3.17a9,9,0,0,0-2.9-.46c-.68,0-.87.12-.87.29s.29.33,1.93.58C68,10,69.3,10.65,69.3,13c0,2.56-1.38,3.8-4.41,3.8A8.61,8.61,0,0,1,60.54,15.73Z"/><path class="cls-1" d="M72.17,0a2.06,2.06,0,0,1,2.2,2.18,2.13,2.13,0,0,1-2.2,2.15,2.25,2.25,0,0,1-2.1-2.15A2.16,2.16,0,0,1,72.17,0Z"/><polygon class="cls-1" points="70.14 16.67 70.14 5.45 74.04 5.01 74.04 16.67 70.14 16.67"/><path class="cls-1" d="M79.45,9.24v7.43H75.56V5.45L79.45,5V6.07l.85-.48a2.8,2.8,0,0,1,1.45-.29,3.13,3.13,0,0,1,2.52,1l1.62-.8a2.77,2.77,0,0,1,1.18-.24c2.66,0,4,.87,4,5.42v6H87.1V10.84c0-1.47-.27-1.74-1-1.74l-.92.09c0,.32.05.66.05,1v6.48H81.32V10.45c0-1-.32-1.35-1-1.35Z"/><path class="cls-1" d="M101,2.19a8.62,8.62,0,1,0,8.62,8.61A8.61,8.61,0,0,0,101,2.19Zm2.51,8.67c-.68.74-.2,1.62-.4,2.63s-1.2,3-1.45,0c-.11-1.31-.46-1.69-.77-1.68s-.67.37-.77,1.68c-.26,3-1.24,1.08-1.45,0s.27-1.89-.41-2.63A2.77,2.77,0,0,1,97.61,9a1.89,1.89,0,0,1,2.9-1.65c.15.15.24.21.34.22s.18-.07.33-.22A1.89,1.89,0,0,1,104.08,9,2.71,2.71,0,0,1,103.47,10.86Z"/><polygon class="cls-1" points="55.63 2.53 55.63 4.26 59.52 3.83 59.52 0 55.63 2.53"/><path class="cls-2" d="M1.76,24.79V18.88l1.46-.22v6.13Z"/><path class="cls-2" d="M6,24.52a2,2,0,0,1-.86.27c-.91,0-1.37-.46-1.37-1.44s.55-1.26,1.34-1.26a2.47,2.47,0,0,1,.39,0l.5.07v-.11c0-.32-.28-.38-.63-.38a2.44,2.44,0,0,0-.85.14l-.39-.92a2.87,2.87,0,0,1,1.57-.38,1.56,1.56,0,0,1,1.74,1.79v2.46H6Zm0-1v-.43H5.53c-.3,0-.4.07-.4.21s.1.29.35.29A2.24,2.24,0,0,0,6,23.54Z"/><path class="cls-2" d="M9,24.44l.39-1.14a4.48,4.48,0,0,0,1.18.21c.32,0,.42-.05.42-.13s-.14-.14-.69-.21c-.76-.11-1.18-.45-1.18-1.27a1.33,1.33,0,0,1,1.49-1.39,2.93,2.93,0,0,1,1.45.35l-.36,1.19a3.35,3.35,0,0,0-1.08-.17c-.26,0-.33,0-.33.1s.11.13.72.22c.79.12,1.26.34,1.26,1.21s-.52,1.41-1.64,1.41A3.29,3.29,0,0,1,9,24.44Z"/><path class="cls-2" d="M12.68,22.71c0-1.41.62-2.2,1.89-2.2s1.8.75,1.8,2.21-.63,2.1-1.8,2.1C13.2,24.82,12.68,24.11,12.68,22.71Zm1.45,0c0,.46.13.77.4.77s.39-.3.39-.76-.1-.85-.39-.85S14.13,22.26,14.13,22.71Z"/><path class="cls-2" d="M18.4,20.81l.37-.18a1.59,1.59,0,0,1,.65-.08c.85,0,1.21.54,1.21,1.63v2.61H19.11V22.67c0-.54-.11-.69-.41-.69l-.3,0v2.77H16.94V20.61l1.46-.17Z"/><path class="cls-2" d="M22.73,20.77l.25-.15a.66.66,0,0,1,.33-.08,1.62,1.62,0,0,1,.85.25l-.5,1.35a1.67,1.67,0,0,0-.61-.13l-.32.09v2.69H21.27V20.61l1.46-.17Z"/><path class="cls-2" d="M25.34,18.57a.77.77,0,0,1,.82.82.79.79,0,0,1-.82.8.84.84,0,0,1-.78-.8A.81.81,0,0,1,25.34,18.57Zm-.75,6.22V20.6L26,20.44v4.35Z"/><path class="cls-2" d="M26.64,24.44,27,23.3a4.56,4.56,0,0,0,1.18.21c.32,0,.43-.05.43-.13s-.15-.14-.7-.21c-.76-.11-1.18-.45-1.18-1.27a1.33,1.33,0,0,1,1.49-1.39,2.93,2.93,0,0,1,1.45.35l-.36,1.19a3.31,3.31,0,0,0-1.08-.17c-.25,0-.33,0-.33.1s.11.13.72.22c.79.12,1.26.34,1.26,1.21s-.51,1.41-1.64,1.41A3.33,3.33,0,0,1,26.64,24.44Z"/><path class="cls-2" d="M32.47,24.52a2,2,0,0,1-.85.27c-.92,0-1.38-.46-1.38-1.44s.55-1.26,1.35-1.26a2.56,2.56,0,0,1,.39,0l.49.07v-.11c0-.32-.28-.38-.63-.38a2.44,2.44,0,0,0-.85.14l-.39-.92a2.9,2.9,0,0,1,1.57-.38,1.56,1.56,0,0,1,1.75,1.79v2.46H32.47Zm0-1v-.43H32c-.3,0-.39.07-.39.21s.09.29.35.29A2.16,2.16,0,0,0,32.47,23.54Z"/><path class="cls-2" d="M37.82,24.57a1.35,1.35,0,0,1-.74.22c-1.08,0-1.52-1.11-1.52-2,0-1.43.51-2.21,1.6-2.21a.77.77,0,0,1,.46.12l.2.17v-.23l1.48-.17v6l-1.48.17Zm0-1.29V22.14L37.45,22c-.22,0-.39.12-.39.53,0,.6.13.77.44.77A1.08,1.08,0,0,0,37.82,23.28Z"/><path class="cls-2" d="M42.18,24.48l-.4.21a1,1,0,0,1-.52.1c-.82,0-1.35-.54-1.35-1.72V20.55h1.53v2c0,.54.09.68.34.68l.4-.09V20.55h1.46v4.24H42.18Z"/><path class="cls-2" d="M45.52,23.18a.49.49,0,0,0,.56.39,3.17,3.17,0,0,0,1.16-.19l.36.93a2.94,2.94,0,0,1-1.72.48c-.94,0-1.76-.55-1.76-2.14s.94-2.1,1.79-2.1c1.1,0,1.63.69,1.63,1.88,0,.52-.22.75-.59.75Zm0-.83.82,0c0-.36-.16-.48-.38-.48S45.54,22,45.48,22.35Z"/><path class="cls-2" d="M51,22v2.77H49.55V20.6L51,20.44v.4l.32-.18a1.06,1.06,0,0,1,.54-.11,1.16,1.16,0,0,1,.94.39l.6-.3a1.07,1.07,0,0,1,.44-.09c1,0,1.47.32,1.47,2v2.22H53.85V22.61c0-.54-.09-.64-.36-.64l-.34,0c0,.12,0,.25,0,.37v2.42H51.7V22.47c0-.39-.12-.5-.39-.5Z"/><path class="cls-2" d="M57.23,23.18a.49.49,0,0,0,.56.39A3.17,3.17,0,0,0,59,23.38l.35.93a2.88,2.88,0,0,1-1.71.48c-.94,0-1.76-.55-1.76-2.14s.94-2.1,1.79-2.1c1.1,0,1.63.69,1.63,1.88,0,.52-.22.75-.59.75Zm0-.83.82,0c0-.36-.16-.48-.38-.48S57.25,22,57.19,22.35Z"/><path class="cls-2" d="M61.29,20.77l.25-.15a.71.71,0,0,1,.34-.08,1.59,1.59,0,0,1,.84.25l-.5,1.35a1.63,1.63,0,0,0-.6-.13l-.33.09v2.69H59.84V20.61l1.45-.17Z"/><path class="cls-2" d="M64.39,23.18a.51.51,0,0,0,.56.39,3.26,3.26,0,0,0,1.17-.19l.35.93a2.91,2.91,0,0,1-1.72.48c-.93,0-1.75-.55-1.75-2.14s.93-2.1,1.78-2.1c1.1,0,1.64.69,1.64,1.88,0,.52-.22.75-.6.75Zm0-.83.82,0c0-.36-.16-.48-.39-.48S64.41,22,64.36,22.35Z"/><path class="cls-2" d="M66.88,22.69c0-1.48.56-2.17,1.61-2.17a2,2,0,0,1,1.41.37l-.33,1.31a1.74,1.74,0,0,0-.71-.12c-.3,0-.5.07-.5.57s.17.6.47.6a2,2,0,0,0,.78-.15l.23,1.42a2.37,2.37,0,0,1-1.35.29C67.35,24.81,66.88,23.82,66.88,22.69Z"/><path class="cls-2" d="M71.69,23.18a.49.49,0,0,0,.55.39,3.26,3.26,0,0,0,1.17-.19l.35.93a2.9,2.9,0,0,1-1.71.48c-.94,0-1.76-.55-1.76-2.14s.94-2.1,1.78-2.1c1.1,0,1.64.69,1.64,1.88,0,.52-.22.75-.6.75Zm0-.83.82,0c0-.36-.16-.48-.39-.48S71.7,22,71.65,22.35Z"/><path class="cls-2" d="M74.1,24.44l.39-1.14a4.56,4.56,0,0,0,1.18.21c.32,0,.43-.05.43-.13s-.15-.14-.7-.21c-.75-.11-1.18-.45-1.18-1.27a1.33,1.33,0,0,1,1.49-1.39,2.93,2.93,0,0,1,1.45.35l-.36,1.19a3.26,3.26,0,0,0-1.08-.17c-.25,0-.33,0-.33.1s.11.13.73.22c.78.12,1.25.34,1.25,1.21s-.51,1.41-1.64,1.41A3.29,3.29,0,0,1,74.1,24.44Z"/></g></g></svg>