<svg xmlns="http://www.w3.org/2000/svg" xmlns:xlink="http://www.w3.org/1999/xlink" viewBox="0 0 40.35 40.34"><defs><style>.cls-1{fill:url(#Degradado_sin_nombre_13);}</style><linearGradient id="Degradado_sin_nombre_13" y1="20.17" x2="40.35" y2="20.17" gradientUnits="userSpaceOnUse"><stop offset="0" stop-color="#92cfca"/><stop offset="0.08" stop-color="#80cac8"/><stop offset="0.29" stop-color="#52bec4"/><stop offset="0.5" stop-color="#2fb4c0"/><stop offset="0.69" stop-color="#15adbe"/><stop offset="0.86" stop-color="#05a8bd"/><stop offset="1" stop-color="#00a7bc"/></linearGradient></defs><title>Recurso 21</title><g id="Capa_2" data-name="Capa 2"><g id="Capa_1-2" data-name="Capa 1"><path class="cls-1" d="M20.17,0A20.17,20.17,0,1,0,40.35,20.16,20.17,20.17,0,0,0,20.17,0Zm5.89,20.31c-1.59,1.74-.48,3.79-.95,6.16s-2.81,7-3.4-.08c-.25-3.06-1.08-3.95-1.8-3.94s-1.55.88-1.81,3.94c-.59,7.11-2.9,2.54-3.39.08s.64-4.42-1-6.16A6.42,6.42,0,0,1,12.34,16c0-5.38,5.83-4.89,6.79-3.87.35.37.55.51.78.53s.43-.16.78-.53c1-1,6.79-1.51,6.79,3.87A6.48,6.48,0,0,1,26.06,20.31Z"/></g></g></svg>