<svg xmlns="http://www.w3.org/2000/svg" xmlns:xlink="http://www.w3.org/1999/xlink" viewBox="0 0 61.38 60.27"><defs><style>.cls-1{fill:#fff;}.cls-2{fill:url(#linear-gradient);}.cls-3{fill:url(#linear-gradient-2);}</style><linearGradient id="linear-gradient" x1="8.68" y1="9.99" x2="52.99" y2="9.99" gradientUnits="userSpaceOnUse"><stop offset="0" stop-color="#c58c41"/><stop offset="0.27" stop-color="#7c4b16"/><stop offset="0.35" stop-color="#804f19"/><stop offset="0.42" stop-color="#8b5b22"/><stop offset="0.49" stop-color="#9e6f30"/><stop offset="0.49" stop-color="#a07131"/><stop offset="0.54" stop-color="#a77b3c"/><stop offset="0.62" stop-color="#bb9559"/><stop offset="0.73" stop-color="#dac088"/><stop offset="0.78" stop-color="#ecd9a4"/><stop offset="0.79" stop-color="#e8d49e"/><stop offset="0.84" stop-color="#caad73"/><stop offset="0.88" stop-color="#b38e51"/><stop offset="0.93" stop-color="#a27839"/><stop offset="0.97" stop-color="#986b2a"/><stop offset="1" stop-color="#946625"/></linearGradient><linearGradient id="linear-gradient-2" x1="10.84" y1="33.53" x2="50.81" y2="33.53" xlink:href="#linear-gradient"/></defs><title>Recurso 3caras</title><g id="Capa_2" data-name="Capa 2"><g id="Capa_1-2" data-name="Capa 1"><path class="cls-1" d="M21.89,56.53a3.26,3.26,0,0,1-1.14,2,5.57,5.57,0,0,1-2.53.41H17a8,8,0,0,1-1-.07,2,2,0,0,1-.6-.15.51.51,0,0,1-.28-.26,1.34,1.34,0,0,1-.15-.52c0-.23,0-.61,0-1.12v-4h2.12c.36,0,.71,0,1.05,0a2.43,2.43,0,0,1,.8.18.68.68,0,0,1,.35.47,3.6,3.6,0,0,1,.1.92v.17h1.22v-.18c-.08-.83-.12-1.58-.12-2.22l.13-2.48H19.41v.16a3,3,0,0,1-.11,1,.9.9,0,0,1-.32.45,1.26,1.26,0,0,1-.61.21,7.63,7.63,0,0,1-1.05.06H15V46.47a1.13,1.13,0,0,1,.06-.45h0a2.19,2.19,0,0,1,.58-.05L17,46a14.74,14.74,0,0,1,1.79.09,2.07,2.07,0,0,1,1.12.47h0a1.12,1.12,0,0,1,.39.55,8,8,0,0,1,.26,1.09l0,.17,1.12-.25-.36-3.44-5.2.12-5.27-.12v1.14h.4a1.71,1.71,0,0,1,1.11.27,1.35,1.35,0,0,1,.3,1V57.83c0,.44-.06,1-.36,1.1a2.67,2.67,0,0,1-1.05.18h-.4v1.14l3-.1,2.6,0,4.87.09.8,0L23,56.66l-1.07-.29Z"/><path class="cls-1" d="M35.36,50.38h-.8l-1.19,0h-.13l-.13.75h.49a1.11,1.11,0,0,1,.46.09.16.16,0,0,1,.09.2,1.71,1.71,0,0,1-.42.81c-.23.28-.65.74-1.31,1.44l-.06.07-.91-1.32-.89-1.15,0,0a5.53,5.53,0,0,0,1.22-.93A2.6,2.6,0,0,0,32.48,49,1.68,1.68,0,0,0,32,47.44a2,2,0,0,0-1.47-.62,3,3,0,0,0-1.84.65,2.57,2.57,0,0,0-1,1.67,2.17,2.17,0,0,0,.12,1.23,4.36,4.36,0,0,0,.52.94A7.84,7.84,0,0,0,26.06,53a3.88,3.88,0,0,0-.88,1.77,2.85,2.85,0,0,0,.52,2.37,2.55,2.55,0,0,0,2.1.95,3.47,3.47,0,0,0,1.57-.41A9.93,9.93,0,0,0,31.43,56l.1-.1c.34.56.53.87.61,1s.21.28.4.5a2.59,2.59,0,0,0,.62.52,1.59,1.59,0,0,0,.77.18,2.24,2.24,0,0,0,1.29-.43,8.68,8.68,0,0,0,1.25-1.11l.09-.1-.43-.64-.14.09-.64.39c-.58.34-.92.3-1.28-.07a4.76,4.76,0,0,1-.63-.81L33,54.76l-.12-.16,1.37-1.51a12.83,12.83,0,0,1,1.51-1.46,2.16,2.16,0,0,1,1.35-.43h.14l.13-.75h-.19C36.54,50.4,35.92,50.38,35.36,50.38Zm-4.31,4.74a6.44,6.44,0,0,1-1.26.89,2.9,2.9,0,0,1-1.34.36,1.44,1.44,0,0,1-1.24-.57A1.81,1.81,0,0,1,27,54.34a2.31,2.31,0,0,1,.67-1.24,7.51,7.51,0,0,1,1.25-1L31,55Zm.08-6.18a2,2,0,0,1-.43.93,3.77,3.77,0,0,1-.75.67,4,4,0,0,1-.58-.84,1.51,1.51,0,0,1-.1-.93,1.22,1.22,0,0,1,.41-.74,1,1,0,0,1,.73-.29.62.62,0,0,1,.61.33A1.32,1.32,0,0,1,31.13,48.94Z"/><path class="cls-1" d="M50,53.87a3.26,3.26,0,0,0-1.22-1.46,5.1,5.1,0,0,0-1.49-.67,6.72,6.72,0,0,0-.7-.13,5.25,5.25,0,0,0,1.72-1.08,3.4,3.4,0,0,0,1-2.54,3.09,3.09,0,0,0-.68-2.07,3.32,3.32,0,0,0-1.41-1,4.49,4.49,0,0,0-1.52-.25h-.22l-.82,0h-.79l-2.74.08-1.64-.07-.89,0v1.09h.46a1.63,1.63,0,0,1,1.09.27,1.44,1.44,0,0,1,.28,1V57.84c0,.67-.15.94-.27,1a1.67,1.67,0,0,1-1.1.24H38.7v1.14l2.79-.12,1.55,0,1.73.08a10.18,10.18,0,0,0,2.15-.21,4.93,4.93,0,0,0,1.8-.79A4.09,4.09,0,0,0,50,57.8a4.17,4.17,0,0,0,.46-1.91A4.87,4.87,0,0,0,50,53.87Zm-7.32-1.29h.71a15,15,0,0,1,2,.12,4,4,0,0,1,1.5.47,2.24,2.24,0,0,1,.93,1,3.71,3.71,0,0,1,.32,1.5,3.31,3.31,0,0,1-1,2.55,3.8,3.8,0,0,1-2.64.87A4.38,4.38,0,0,1,43.5,59a.83.83,0,0,1-.58-.42h0a1.5,1.5,0,0,1-.16-.59,9,9,0,0,1,0-.92Zm3.39-2a4.84,4.84,0,0,1-2.77.74h-.62v-5.5H44a4.16,4.16,0,0,1,2.29.61,2,2,0,0,1,.9,1.84A2.59,2.59,0,0,1,46.1,50.6Z"/><path class="cls-2" d="M21.31,7.35c3.1,1.75,5.86,1.7,8.59,0-3.82-1.1-6.9-4.12-11.16-4a6.25,6.25,0,0,0-6.11,4.3,23.34,23.34,0,0,0-1.15,10c0,.44.09.88.12,1.33.06.74-.47.87-1,1S9.5,20,9.35,19.23C8.28,14,8.17,8.85,11.41,4.24,14.9-.74,20-1.34,25.22,2.48c1.12.81,2.2,1.66,3.35,2.43a4.24,4.24,0,0,0,5.53-.16C35.35,3.83,36.6,2.9,37.9,2A9.81,9.81,0,0,1,45.48.89,8.16,8.16,0,0,1,51.7,6.38c1.62,4.11,1.48,8.36.83,12.62-.23,1.55-1.35.79-2.2.75-1.08,0-.89-.72-.76-1.4a24.11,24.11,0,0,0,.51-8.08C49.33,5,45,2.46,40,4.24a57.15,57.15,0,0,0-7.47,3.83,22.39,22.39,0,0,1-4.48,2A5.85,5.85,0,0,1,21.31,7.35Z"/><path class="cls-3" d="M39.27,42.21c-1.53.06-2.69-.92-3.67-2.21a32.89,32.89,0,0,1-2.66-4.92A13.68,13.68,0,0,0,31.73,33c-1.3-1.66-2.68-1.58-3.87.16a18.35,18.35,0,0,0-1.73,3.6,21.59,21.59,0,0,1-1.94,4.09q-2.42,3.63-5.86.93a14,14,0,0,1-3.61-4.58A39,39,0,0,1,10.9,25.6c-.15-.81-.05-1.24.85-1.44s1.26.25,1.41,1.06a48.91,48.91,0,0,0,3.31,11.1,12.54,12.54,0,0,0,2.08,3.24c1.61,1.8,3.38,1.62,4.44-.54s1.9-4.31,2.82-6.47a13.48,13.48,0,0,1,1.47-2.69c1.61-2.23,3.61-2.22,5.18,0a64.68,64.68,0,0,1,3.48,6.46,11.32,11.32,0,0,0,1.39,2.11c1.31,1.46,2.23,1.56,3.76.28a13,13,0,0,0,2.56-3.06,28,28,0,0,0,3.94-10c.22-1.18.88-1.46,2.43-1.14,1.15.24.75,1,.57,1.66-1.23,4.43-2.72,8.77-5.43,12.54C43.79,40.63,42.11,42.24,39.27,42.21Z"/><path class="cls-1" d="M43,21.33c0-.53,0-1.07,0-1.6s-.13-1.23.79-1.21c.65,0,1.38-.21,1.29.91-.05.68.55.67,1,.7,4.61.37,9.18,1,13.74,1.72,1,.16,1.66.49,1.45,1.68-.09.5-.32.69-.8.65-3.36-.28-6.73-.58-10.09-.83-1.46-.11-2.93-.15-4.4-.21-.4,0-.86,0-.94.51-.15,1-.91.62-1.45.63-.74,0-.62-.61-.64-1.08S43,22,43,21.33Z"/><path class="cls-1" d="M18.34,21.37c0,.63,0,1.25,0,1.87s0,1.06-.7,1.05c-.53,0-1.22.27-1.37-.62-.11-.65-.55-.64-1.1-.6-4.7.37-9.4.7-14.09,1.06-.52,0-1,.13-1-.61S-.22,22.14.82,22c2.24-.32,4.47-.74,6.71-1,2.6-.33,5.21-.57,7.82-.82.51-.05.9-.2.91-.75,0-1,.67-.87,1.3-.87.79,0,.77.57.78,1.12S18.34,20.79,18.34,21.37Z"/><path class="cls-1" d="M30.89,20.87c0,.57,0,1.15,0,1.73s.14,1.09-.59,1.13c-.55,0-1.28.38-1.53-.55-.17-.62-.7-.45-1.12-.44-1.86.06-3.73.14-5.59.22-.43,0-1-.09-1.07.52-.17,1.09-1,.87-1.65.8-.9-.08-.6-.84-.63-1.36,0-1.06,0-2.13,0-3.2,0-.47-.26-1.2.62-1.19.6,0,1.43-.36,1.61.67.1.5.36.65.85.59a47.69,47.69,0,0,1,5.86-.19c.65,0,1.18-.1,1.18-.9,0-1,.72-.69,1.24-.74.67-.06.84.32.83.9S30.88,20.2,30.89,20.87Z"/><path class="cls-1" d="M42.65,21.37c0,.54,0,1.07,0,1.6s.23,1.26-.68,1.33c-.65,0-1.38.21-1.53-.79-.07-.5-.48-.58-.9-.6l-5.07-.19a1,1,0,0,0-1.07.58c-.34.78-1.07.47-1.64.41s-.48-.65-.48-1.06c0-1.25,0-2.5,0-3.74,0-.51,0-1,.72-1,.56.06,1.38-.34,1.45.66s.54,1,1.25,1c1.29,0,2.58,0,3.87,0,.78,0,1.64.33,2.07-.85.2-.55,1.06-.26,1.61-.22s.39.61.41,1C42.67,20.12,42.65,20.75,42.65,21.37Z"/></g></g></svg>